<?xml version="1.0" standalone="no"?>
<!DOCTYPE svg PUBLIC "-//W3C//DTD SVG 20010904//EN"
 "http://www.w3.org/TR/2001/REC-SVG-20010904/DTD/svg10.dtd">
<svg version="1.0" xmlns="http://www.w3.org/2000/svg"
 width="920.000000pt" height="533.000000pt" viewBox="0 0 920.000000 533.000000"
 preserveAspectRatio="xMidYMid meet">
<metadata>
Created by potrace 1.16, written by Peter Selinger 2001-2019
</metadata>
<g transform="translate(0.000000,533.000000) scale(0.100000,-0.100000)"
fill="#000000" stroke="none">
<path d="M4568 5282 c-316 -328 -566 -916 -644 -1517 -19 -142 -23 -568 -7
-660 l8 -50 685 -3 c376 -1 687 1 691 5 4 5 13 94 20 198 36 590 -126 1233
-437 1735 -63 102 -175 249 -231 302 l-39 38 -46 -48z"/>
<path d="M1906 4210 c-9 -71 11 -295 39 -435 40 -197 114 -416 210 -622 l48
-103 798 0 c440 0 799 2 799 6 0 11 -83 126 -162 226 -320 401 -778 718 -1288
890 -124 42 -333 88 -397 88 l-40 0 -7 -50z"/>
<path d="M7111 4234 c-344 -72 -750 -269 -1081 -524 -117 -90 -362 -335 -453
-451 -77 -100 -137 -187 -137 -200 0 -5 330 -9 794 -9 l794 0 32 68 c101 212
180 435 224 632 33 152 46 261 46 397 l0 113 -52 -1 c-29 -1 -105 -12 -167
-25z"/>
<path d="M2326 2818 c9 -18 40 -66 68 -105 l51 -73 2167 0 2167 0 34 43 c35
43 107 152 107 162 0 3 -1037 5 -2305 5 l-2306 0 17 -32z"/>
<path d="M2649 2393 c21 -31 97 -104 149 -146 l34 -27 1772 0 1773 0 49 32
c55 36 164 141 164 157 0 8 -569 11 -1981 11 l-1980 0 20 -27z"/>
<path d="M3126 2012 c151 -128 513 -310 760 -382 110 -32 333 -74 343 -64 9 8
7 242 -3 357 l-8 97 -551 0 c-303 0 -547 -4 -541 -8z"/>
<path d="M4301 1963 c59 -108 198 -308 257 -372 l58 -64 63 74 c93 111 271
381 271 412 0 4 -153 7 -341 7 l-340 0 32 -57z"/>
<path d="M5016 1993 c-14 -66 -26 -216 -26 -320 l0 -112 38 5 c282 37 541 124
797 267 100 56 260 161 270 177 4 7 -168 10 -534 10 l-539 0 -6 -27z"/>
<path d="M3697 1274 c-4 -4 -7 -91 -7 -194 l0 -186 -59 28 c-131 63 -287 61
-424 -5 -87 -42 -143 -89 -189 -159 -97 -149 -110 -316 -35 -472 43 -88 90
-143 168 -195 91 -61 180 -85 293 -79 86 5 118 14 234 65 8 3 12 -4 12 -21 l0
-26 120 0 120 0 -2 623 -3 622 -111 3 c-60 1 -113 -1 -117 -4z m-143 -552 c84
-45 134 -132 135 -235 1 -73 -16 -114 -74 -176 -131 -140 -351 -102 -434 75
-23 49 -28 143 -10 191 58 155 238 223 383 145z"/>
<path d="M4040 1160 l0 -121 112 3 113 3 0 115 0 115 -112 3 -113 3 0 -121z"/>
<path d="M5120 1085 l0 -195 -50 25 c-140 71 -311 70 -452 -1 -77 -39 -173
-139 -209 -219 -63 -140 -61 -288 7 -424 37 -74 118 -160 194 -204 124 -72
313 -76 453 -8 55 26 57 26 57 -4 l0 -25 110 0 110 0 0 625 0 625 -110 0 -110
0 0 -195z m-145 -364 c99 -56 159 -176 136 -275 -25 -108 -94 -182 -198 -212
-65 -19 -119 -12 -186 24 -129 69 -177 216 -114 344 71 144 227 195 362 119z"/>
<path d="M7150 1274 c-61 -21 -90 -58 -90 -114 0 -110 130 -154 205 -70 14 16
20 36 20 71 0 41 -5 53 -30 78 -30 29 -76 44 -105 35z m69 -28 c69 -36 64
-146 -8 -176 -65 -26 -131 19 -131 89 0 78 70 122 139 87z"/>
<path d="M2238 954 c-87 -21 -156 -60 -223 -128 -190 -190 -189 -496 2 -678
113 -107 214 -144 368 -136 84 5 117 14 233 65 8 3 12 -4 12 -21 l0 -26 115 0
115 0 0 465 0 465 -115 0 -115 0 0 -34 0 -34 -57 28 c-99 49 -223 62 -335 34z
m227 -218 c18 -8 52 -31 75 -53 143 -128 111 -341 -65 -430 -170 -87 -376 40
-376 232 0 125 75 228 192 264 41 12 128 6 174 -13z"/>
<path d="M5786 954 c-130 -32 -264 -138 -320 -257 -100 -213 -35 -462 158
-599 95 -67 145 -82 281 -83 115 0 123 1 189 32 37 18 70 33 72 33 2 0 4 -11
4 -25 l0 -25 118 0 118 0 -1 462 0 463 -117 3 -118 3 0 -35 0 -35 -43 24 c-90
51 -227 67 -341 39z m203 -210 c95 -28 170 -125 179 -232 13 -152 -105 -286
-253 -286 -149 1 -264 114 -265 262 0 100 45 181 127 229 76 44 131 51 212 27z"/>
<path d="M6760 952 c-129 -34 -205 -101 -236 -210 -37 -125 25 -258 144 -308
43 -18 174 -48 280 -65 82 -12 132 -44 132 -84 0 -34 -43 -80 -88 -93 -114
-35 -233 13 -251 100 l-7 33 -122 3 c-137 3 -130 8 -109 -76 40 -153 191 -242
410 -242 153 0 261 34 332 105 102 102 110 275 18 370 -55 57 -138 91 -295
119 -150 27 -200 45 -216 80 -32 72 86 126 217 100 39 -8 77 -45 85 -84 l6
-30 116 0 116 0 -7 33 c-20 89 -86 177 -164 217 -97 49 -244 62 -361 32z"/>
<path d="M4040 495 l0 -465 113 0 113 0 0 463 -1 462 -112 3 -113 3 0 -466z"/>
</g>
</svg>
